<?xml version="1.0" encoding="utf-8"?>
<!-- Generator: Adobe Illustrator 21.1.0, SVG Export Plug-In . SVG Version: 6.00 Build 0)  -->
<svg version="1.1" id="Calque_1" xmlns="http://www.w3.org/2000/svg" xmlns:xlink="http://www.w3.org/1999/xlink" x="0px" y="0px"
	 viewBox="0 0 164.2 30" style="enable-background:new 0 0 164.2 30;" xml:space="preserve">
<style type="text/css">
	.st0{fill:#5A52FF;}
</style>
<g>
	<path class="st0" d="M28,4.3c-4.6,0-8.6,3.9-8.6,8.6s3.9,8.6,8.6,8.6c1,0,1.8-0.8,1.8-1.8S29,17.9,28,17.9c-2.7,0-5-2.3-5-5
		s2.3-5,5-5c2.8,0,5,2.3,5,5v8.3c0,1,0.8,1.8,1.8,1.8s1.8-0.8,1.8-1.8v-8.6c0-0.1,0-0.2,0-0.3C36.2,7.9,32.5,4.3,28,4.3z"/>
	<path class="st0" d="M47.3,4.4c-4.4,0-8.1,3.5-8.5,7.8c0,0.1,0,0.2,0,0.4v15.6c0,1,0.8,1.8,1.8,1.8s1.8-0.8,1.8-1.8V13
		c0-2.7,2.3-5,5-5s5,2.3,5,5c0,2.8-2.3,5-5,5c-1,0-1.8,0.8-1.8,1.8s0.8,1.8,1.8,1.8c4.7,0,8.6-3.8,8.6-8.6
		C55.9,8.4,51.9,4.4,47.3,4.4z"/>
	<path class="st0" d="M86,4.2c-4.7,0-8.6,3.6-8.6,8.1v7.6c0,1,0.8,1.8,1.8,1.8s1.8-0.8,1.8-1.8v-7.6c0-2.5,2.3-4.5,5-4.5
		c1,0,1.8-0.8,1.8-1.8S87,4.2,86,4.2z"/>
	<path class="st0" d="M66.7,4.4c-4.6,0-8.6,3.9-8.6,8.6c0,4.7,3.8,8.6,8.6,8.6c1,0,1.8-0.8,1.8-1.8S67.7,18,66.7,18
		c-2.8,0-5-2.3-5-5c0-2.7,2.3-5,5-5c2.1,0,4,1.4,4.7,3.3h-3.9c-1,0-1.8,0.8-1.8,1.8s0.8,1.8,1.8,1.8h6c1,0,1.8-0.8,1.8-1.8
		C75.3,8.4,71.3,4.4,66.7,4.4z"/>
	<path class="st0" d="M97.5,4.2c-4.7,0-8.6,3.6-8.6,8.1v7.6c0,1,0.8,1.8,1.8,1.8s1.8-0.8,1.8-1.8v-7.6c0-2.5,2.3-4.5,5-4.5
		s5,2,5,4.5v7.6c0,1,0.8,1.8,1.8,1.8s1.8-0.8,1.8-1.8v-7.6C106.1,7.9,102.2,4.2,97.5,4.2z"/>
	<path class="st0" d="M136.8,11.2h-4.1c-0.9,0-1.6-0.7-1.6-1.6s0.7-1.6,1.6-1.6h6.9c1,0,1.8-0.8,1.8-1.8s-0.8-1.8-1.8-1.8h-6.9
		c-2.9,0-5.2,2.3-5.2,5.2s2.3,5.2,5.2,5.2h4.1c0.9,0,1.6,0.7,1.6,1.6c0,0.9-0.7,1.6-1.6,1.6h-6.9c-1,0-1.8,0.8-1.8,1.8
		s0.8,1.8,1.8,1.8h6.9c2.9,0,5.2-2.3,5.2-5.2C142,13.5,139.7,11.2,136.8,11.2z"/>
	<path class="st0" d="M119.7,4.9c-2.2-0.7-4.5-0.6-6.6,0.5c-2.1,1-3.6,2.8-4.3,5c-0.7,2.2-0.6,4.5,0.5,6.6c1,2.1,2.8,3.6,5,4.3
		c0.9,0.3,1.8,0.5,2.8,0.5c1.3,0,2.6-0.3,3.8-0.9c0.9-0.4,1.2-1.5,0.8-2.4s-1.5-1.2-2.4-0.8c-1.2,0.6-2.6,0.7-3.9,0.3
		c-1.3-0.4-2.3-1.4-3-2.6c-0.6-1.2-0.7-2.6-0.3-3.9c0.4-1.3,1.4-2.3,2.6-3c1.2-0.6,2.6-0.7,3.9-0.3c0.7,0.2,1.3,0.6,1.9,1.1
		l-3.5,1.7c-0.9,0.4-1.2,1.5-0.8,2.3c0.4,0.9,1.5,1.2,2.3,0.8l5.4-2.6c0.4-0.2,0.8-0.6,0.9-1c0.2-0.4,0.1-0.9-0.1-1.4
		C123.6,7.1,121.9,5.6,119.7,4.9z"/>
	<path class="st0" d="M162.4,11.1c-1,0-1.8,0.8-1.8,1.8c0,2.8-2.3,5-5,5s-5-2.3-5-5v-5h3.4c1,0,1.8-0.8,1.8-1.8S155,4.3,154,4.3
		h-3.4V1.7c0-1-0.8-1.8-1.8-1.8S147,0.7,147,1.7v2.6h-1.6c-1,0-1.8,0.8-1.8,1.8s0.8,1.8,1.8,1.8h1.6v5c0,4.7,3.8,8.6,8.6,8.6
		c4.7,0,8.6-3.8,8.6-8.6C164.2,11.9,163.4,11.1,162.4,11.1z"/>
	<path class="st0" d="M8.6,4.3c-4.5,0-8.2,3.5-8.5,8c0,0.1,0,0.2,0,0.3v15.6c0,1,0.8,1.8,1.8,1.8s1.8-0.8,1.8-1.8V12.9
		c0-2.8,2.3-5,5-5c2.7,0,5,2.3,5,5s-2.3,5-5,5c-1,0-1.8,0.8-1.8,1.8s0.8,1.8,1.8,1.8c4.6,0,8.6-3.9,8.6-8.6S13.2,4.3,8.6,4.3z"/>
</g>
</svg>
